<?xml version="1.0" encoding="UTF-8" standalone="no"?>
<svg version="1.1" xmlns="http://www.w3.org/2000/svg" xmlns:xlink="http://www.w3.org/1999/xlink" width="501" height="201">
	<defs>
		<clipPath id="clip_dp_001" clipPathUnits="userSpaceOnUse" clip-rule="evenodd">
			<path d="M 786.143,-188.92 L 1018.5,-188.92 L 1018.5,-37.756 L 786.143,-37.756 Z " clip-rule="evenodd"/>
		</clipPath>
	</defs>
	<g id="dp_dp001" transform="matrix(1,0,0,1,-743.351,214.052)">
		<path id="dp_path002" fill="#6d6d6d" fill-rule="evenodd" stroke="none" stroke-width="0" d="M 1046.17,-98.2213 L 1093.21,-13.34 L 1131.54,-13.34 L 1244.02,-149.08 L 1244.02,-213.379 L 1235.06,-213.337 L 1115.77,-70.1347 L 1084.95,-125.271 Z "/>
		<path id="dp_path003" fill="black" fill-rule="evenodd" stroke="none" stroke-width="0" d="M 1037.9,-98.268 L 1084.95,-13.3867 L 1123.27,-13.3867 L 1244.02,-159.236 L 1244.02,-213.379 L 1226.79,-213.384 L 1107.5,-70.1813 L 1076.68,-125.317 Z "/>
		<image id="dp_image004" fill="none" x="780.351" y="-193.052" width="243" height="159" xlink:href="Draw78A3_images/Draw78A3_001.png"/>
		<g id="dp_dp005" clip-path="url(#clip_dp_001)">
			<g id="clip">
				<path id="dp_path006" fill="black" fill-rule="evenodd" stroke="none" stroke-width="0" d="M 838.472,-188.92 C 837.509,-187.525 836.875,-185.916 836.38,-184.301 C 832.888,-172.948 835.067,-160.815 835.067,-149.163 C 835.067,-147.984 835.067,-147.984 835.199,-145.621 C 835.331,-143.26 835.331,-143.26 835.331,-142.737 C 835.331,-142.215 835.331,-142.215 835.476,-140.921 C 835.621,-139.633 835.621,-139.633 835.549,-139.367 C 835.508,-139.224 834.968,-138.977 834.34,-138.821 C 832.955,-138.477 831.727,-137.808 830.479,-137.124 C 829.324,-136.496 829.324,-136.496 828.539,-136.349 C 827.752,-136.208 827.752,-136.208 826.836,-135.697 C 825.917,-135.185 825.917,-135.185 825.165,-135.037 C 822.175,-134.456 819.033,-132.407 816.333,-131.108 C 813.309,-129.649 813.309,-129.649 812.121,-128.993 C 810.947,-128.343 810.947,-128.343 810.412,-128.064 C 810.043,-127.875 809.673,-127.623 809.237,-127.279 C 808.755,-126.88 808.517,-126.733 808.195,-126.624 C 807.5,-126.385 807.025,-125.729 806.517,-125.22 C 806.141,-125.023 805.796,-124.807 805.457,-124.551 C 805.136,-124.317 804.833,-124.161 804.655,-124.143 C 803.691,-124.056 802.044,-122.079 801.365,-121.451 C 798.885,-119.157 802.604,-119.873 803.893,-120.093 C 811.105,-121.332 818.155,-124.169 825.08,-126.476 C 828.103,-127.489 830.948,-128.384 831.396,-128.471 C 832.624,-128.709 833.753,-129.403 834.908,-129.875 C 836.644,-130.589 836.123,-128.952 836.129,-127.553 C 836.136,-126.527 836.308,-124.817 836.512,-123.752 C 836.711,-122.684 836.883,-120.979 836.888,-119.96 C 836.901,-118.112 836.901,-118.112 837.152,-116.025 C 837.456,-113.495 837.429,-110.931 837.429,-108.387 C 837.429,-107.859 837.429,-107.859 837.556,-105.497 C 837.688,-103.14 837.688,-103.14 837.688,-99.9947 C 837.688,-96.844 837.688,-96.844 837.819,-94.4867 C 837.952,-92.1253 837.952,-92.1253 837.952,-87.4027 C 837.952,-82.684 837.952,-82.684 838.084,-80.3213 C 838.216,-77.964 838.216,-77.964 838.216,-77.3093 C 838.216,-76.6533 838.216,-76.6533 838.348,-74.5533 C 838.472,-72.4573 838.472,-72.4573 838.604,-69.7013 C 838.736,-66.9493 838.736,-66.9493 838.868,-64.616 C 839.1,-60.5573 839.991,-56.7653 840.691,-52.812 C 841.239,-49.7213 844.645,-49.4 847.153,-48.608 C 851.319,-47.2867 850.467,-51.8627 849.999,-54.212 C 849.325,-57.5547 848.963,-61.0987 848.963,-64.5107 C 848.963,-67.2573 848.691,-70.0133 848.453,-72.7467 C 848.189,-75.7267 848.176,-78.6987 848.176,-81.688 C 848.176,-82.7387 848.176,-82.7387 848.044,-85.096 C 847.919,-87.4573 847.919,-87.4573 847.919,-92.7027 C 847.919,-97.9493 847.919,-97.9493 847.78,-100.305 C 847.648,-102.668 847.648,-102.668 847.648,-105.029 C 847.648,-108.088 847.463,-111.137 847.14,-114.177 C 846.896,-116.512 846.896,-116.512 846.876,-118.232 C 846.863,-120.689 846.665,-123.133 846.355,-125.573 C 846.104,-127.527 846.104,-127.527 846.091,-129.26 C 846.077,-130.989 846.077,-130.989 845.912,-132.465 C 845.675,-134.524 847.14,-135.355 849.227,-135.423 C 851.173,-135.483 853.227,-136.675 854.995,-137.385 C 857.853,-138.541 857.853,-138.541 858.665,-138.701 C 859.108,-138.784 859.992,-139.077 860.633,-139.353 C 861.781,-139.853 861.781,-139.853 864.039,-140.403 C 866.739,-141.063 869.399,-141.861 872.065,-142.66 C 875.115,-143.577 878.337,-143.847 881.273,-145.117 C 885.215,-146.828 885.089,-147.488 887.512,-147.813 C 888.621,-147.961 890.581,-147.469 891.169,-147.484 C 891.763,-147.497 893.063,-147.745 894.053,-148.039 C 899.057,-149.501 904.377,-150.221 909.52,-150.973 C 914.529,-151.707 914.529,-151.707 917.289,-152.22 C 924.32,-153.523 931.423,-153.963 938.525,-154.696 C 941.785,-155.032 945.053,-155.408 948.221,-156.269 C 949.013,-156.485 949.964,-156.815 950.333,-157.003 C 952.275,-157.989 948.863,-158.975 948.235,-159.177 C 940.776,-161.529 932.148,-161.236 924.444,-160.465 C 913.547,-159.375 902.641,-157.668 891.96,-155.233 C 888.516,-154.449 885.029,-153.793 884.225,-153.779 C 880.931,-153.72 877.485,-152.331 874.323,-151.541 C 870.6,-150.615 870.6,-150.615 869.729,-150.359 C 868.864,-150.107 868.864,-150.107 866.764,-149.699 C 865.609,-149.479 864.032,-149.011 863.253,-148.667 C 859.352,-146.933 854.876,-146.007 850.824,-144.741 C 845.319,-143.025 845.319,-143.025 845.305,-142.961 C 845.292,-142.893 845.292,-142.893 845.292,-145.071 C 845.292,-147.249 845.292,-147.249 845.16,-149.607 C 845.035,-151.968 845.035,-151.968 845.035,-153.408 C 845.035,-154.852 845.035,-154.852 844.896,-157.215 C 844.763,-159.576 844.763,-159.576 844.763,-160.887 C 844.763,-162.195 844.763,-162.195 844.637,-164.556 C 844.505,-166.917 844.505,-166.917 844.505,-168.357 C 844.505,-174.621 842.737,-182.036 839.919,-187.621 C 839.555,-188.337 839.087,-188.92 838.868,-188.92 C 838.736,-188.92 838.472,-188.92 838.472,-188.92 Z M 790.499,-187.869 C 780.703,-151.047 790.04,-111.935 791.809,-74.8147 C 792.187,-66.8493 792.777,-58.912 793.264,-50.9507 C 793.405,-48.5933 793.405,-48.5933 793.933,-45.4387 C 794.46,-42.284 794.46,-42.284 794.757,-41.5227 C 795.652,-39.2253 799.376,-37.6013 801.705,-37.6013 C 806.021,-37.6013 804.085,-42.8067 803.737,-45.76 C 802.549,-55.7333 802.077,-65.7627 801.596,-75.792 C 801.051,-87.1307 800.1,-98.324 798.885,-109.615 C 797.885,-118.952 797.028,-128.273 796.529,-137.652 C 796.268,-142.525 796.268,-142.525 796.268,-144.365 C 796.268,-146.2 796.268,-146.2 796.135,-148.561 C 796.005,-150.917 796.005,-150.917 796.005,-155.38 C 796.005,-165.752 794.332,-176.025 791.965,-186.095 C 791.755,-187.007 791.433,-187.783 791.255,-187.809 C 790.933,-187.869 790.933,-187.869 790.713,-187.869 C 790.76,-187.869 790.499,-187.869 790.499,-187.869 Z M 926.571,-146.961 C 922.788,-145.025 921.685,-140.843 921.289,-136.885 C 920.643,-130.411 920.28,-123.684 920.28,-117.168 C 920.28,-116.251 920.28,-116.251 920.148,-113.889 C 919.48,-101.888 920.431,-89.9107 921.705,-77.988 C 922.345,-71.9853 922.345,-71.9853 922.345,-71.1587 C 922.339,-68.7333 925.271,-67.7067 927.072,-66.8947 C 928.32,-66.3307 931.943,-65.7853 932.22,-67.7707 C 932.761,-71.5907 931.667,-76.08 931.291,-79.8267 C 930.499,-87.668 930.499,-87.668 930.432,-89.612 C 930.385,-91.116 930.367,-91.5613 930.709,-91.4507 C 931.291,-91.2587 931.739,-90.6813 932.207,-90.3133 C 932.835,-89.8187 932.835,-89.8187 933.244,-89.544 C 941.145,-84.1827 947.661,-76.4187 953.819,-69.22 C 955.932,-66.748 959.417,-64.9693 962.757,-65.3907 C 964.731,-65.644 963.601,-68.4587 962.876,-69.3347 C 955.852,-77.8267 948.189,-85.568 939.548,-92.4147 C 939.199,-92.6853 938.789,-92.9827 938.631,-93.0707 C 938.34,-93.2267 938.34,-93.2267 937.824,-93.6067 C 936.029,-94.9453 934.043,-95.9867 932.083,-97.064 C 930.293,-98.0507 931.508,-98.8573 932.22,-100.412 C 932.701,-101.471 933.336,-102.324 934.141,-103.14 C 934.631,-104.061 935.237,-104.937 935.864,-105.772 C 936.069,-106.056 936.293,-106.443 936.36,-106.639 C 936.709,-107.693 937.917,-108.703 938.617,-109.579 C 939.125,-110.22 939.125,-110.22 939.535,-110.756 C 941.179,-112.939 943.007,-115.017 944.803,-117.076 C 946.557,-119.089 948.255,-121.153 949.919,-123.239 C 950.427,-123.881 950.427,-123.881 950.704,-124.289 C 950.98,-124.692 950.98,-124.692 951.356,-125.207 C 951.733,-125.72 951.733,-125.72 951.997,-126.109 C 952.261,-126.504 952.261,-126.504 952.539,-126.899 C 952.689,-127.119 952.921,-127.591 953.06,-127.948 C 953.311,-128.604 953.311,-128.604 953.581,-129.191 C 954.789,-131.851 955.411,-135.451 954.921,-138.335 C 954.347,-141.733 950.413,-137.812 948.849,-136.996 C 945.72,-135.355 943.231,-131.937 941.145,-129.155 C 937.989,-124.945 934.504,-120.956 931.052,-116.984 C 930.327,-116.145 930.327,-116.145 930.287,-116.145 C 930.24,-116.145 930.24,-116.145 930.24,-117.405 C 930.24,-122.859 930.571,-128.549 931.159,-133.979 C 931.56,-137.712 930.537,-141.38 929.045,-144.755 C 928.551,-145.873 927.897,-146.961 926.571,-146.961 Z M 887.505,-145.911 C 886.595,-145.599 886.595,-145.599 885.855,-145.227 C 881.425,-143.031 878.944,-137.84 877.459,-133.272 C 877.34,-132.929 877.34,-132.929 876.904,-133.813 C 876.257,-135.101 875.524,-134.891 874.613,-133.937 C 872.277,-131.497 871.055,-127.361 870.441,-124.097 C 869.161,-117.269 870.263,-109.647 870.593,-102.745 C 870.719,-100.209 870.824,-97.6747 870.593,-95.1373 C 870.521,-94.3453 870.521,-92.5187 870.593,-91.0747 C 870.725,-88.452 870.725,-88.452 870.739,-86.6173 C 870.752,-84.784 870.752,-84.784 871.023,-83.1747 C 871.3,-81.564 871.3,-81.564 871.524,-79.3173 C 871.749,-77.0707 871.749,-77.0707 871.749,-77.1347 C 871.749,-77.2027 871.749,-77.2027 869.781,-77.5973 C 867.815,-77.988 867.815,-77.988 866.791,-77.988 C 864.019,-77.988 865.636,-75.576 866.705,-74.5947 C 868.012,-73.3933 869.325,-72.508 870.931,-71.7333 C 872.487,-70.976 872.487,-70.976 872.521,-70.7693 C 872.56,-70.5587 872.56,-70.5587 872.56,-69.8027 C 872.56,-68.0467 873.075,-65.3827 874.448,-64.1627 C 876.045,-62.74 879.525,-61.4747 881.696,-61.9427 C 884.172,-62.4693 883.241,-65.4787 882.864,-67.28 C 884.197,-66.9773 885.525,-66.6747 886.845,-66.3173 C 893.617,-64.5053 900.608,-64.2213 907.064,-67.252 C 910.471,-68.8533 913.368,-72.036 914.247,-75.768 C 915.243,-80.0747 914.365,-85.4813 911.124,-88.7133 C 911.064,-89.0853 910.8,-89.3733 910.576,-89.6573 C 908.345,-92.4787 905.565,-94.8813 902.695,-97.0133 C 899.881,-99.1147 896.297,-101.196 893.004,-102.177 C 892.581,-102.301 894.668,-103.153 894.984,-103.296 C 895.888,-103.689 895.888,-103.689 897.076,-104.345 C 898.252,-105.003 898.252,-105.003 898.787,-105.277 C 899.505,-105.644 900.02,-106.249 900.588,-106.808 C 900.965,-107.005 901.308,-107.221 901.652,-107.479 C 902.16,-107.859 902.16,-107.859 902.449,-108.005 C 906.476,-110.019 910.12,-115.967 910.833,-120.213 C 911.679,-125.179 911.751,-132.676 907.823,-136.601 C 907.196,-137.231 907.196,-137.231 907.091,-137.551 C 906.641,-138.981 904.213,-140.384 903.011,-141.307 C 902.192,-141.944 901.116,-142.604 900.113,-142.88 C 899.769,-142.976 899.505,-143.113 899.341,-143.279 C 898.219,-144.443 895.519,-144.943 893.995,-145.305 C 891.856,-145.815 889.696,-145.911 887.505,-145.911 Z M 988.184,-145.121 C 987.616,-144.851 986.441,-144.503 985.557,-144.351 C 983.748,-144.04 980.989,-143.177 979.656,-141.847 C 979.029,-141.215 979.029,-141.215 978.751,-141.192 C 978.48,-141.164 978.48,-141.164 977.287,-139.853 C 973.628,-135.832 971.312,-130.548 969.549,-125.445 C 968.949,-123.688 968.223,-121.973 967.339,-120.341 C 966.995,-119.708 966.645,-118.657 966.567,-118.007 C 966.421,-116.828 966.421,-116.828 966.025,-115.751 C 964.665,-112.041 964.091,-107.891 963.581,-103.988 C 962.532,-95.8027 962.136,-87.164 963.279,-78.9693 C 963.727,-75.796 964.856,-71.9493 967.18,-69.624 C 967.339,-69.3213 967.491,-69.0227 967.623,-68.7067 C 968.797,-65.932 970.836,-67.188 971.688,-69.156 C 973.563,-73.48 973.101,-78.9373 972.843,-83.5227 C 972.567,-88.484 972.724,-93.372 973.273,-98.3013 C 973.444,-99.7973 973.675,-101.095 973.793,-101.187 C 973.912,-101.283 974.104,-101.164 974.224,-100.925 C 975.193,-98.9813 977.524,-97.2747 979.008,-95.688 C 982.361,-92.0893 985.828,-88.5813 989.253,-85.0453 L 990.956,-83.2067 C 992.647,-81.3893 994.331,-79.5747 996.02,-77.7547 C 997.611,-76.1627 999.201,-74.572 1000.79,-72.98 L 1001.45,-72.4573 C 1002.11,-71.9307 1002.11,-71.9307 1002.63,-71.536 C 1003.15,-71.1467 1003.15,-71.1467 1003.61,-70.7933 C 1004.77,-69.8933 1006.28,-69.0093 1007.71,-68.6787 C 1008.09,-68.592 1008.75,-68.3307 1009.18,-68.1013 C 1011.07,-67.096 1014.03,-66.8907 1016.07,-67.4947 C 1018.06,-68.0827 1019.27,-70.9493 1017.82,-72.6453 C 1017.39,-73.1507 1017.3,-73.2827 1017.26,-73.508 C 1016.95,-75.3147 1013.13,-74.5853 1012.17,-74.3333 C 1010.23,-73.8187 1010.23,-73.8187 1009.9,-73.8147 C 1008.63,-73.8 1006.72,-76.4933 1006.01,-77.2027 C 1003.37,-79.84 1000.86,-82.592 998.297,-85.3067 C 995.036,-88.764 991.716,-92.1667 988.416,-95.5827 L 986.725,-97.408 C 985.035,-99.2333 985.035,-99.2333 983.576,-100.816 C 982.012,-102.521 980.421,-104.195 978.831,-105.864 L 980.243,-106.231 C 981.669,-106.603 982.929,-107.244 984.249,-107.887 C 984.804,-108.156 985.511,-108.451 985.808,-108.528 C 986.341,-108.671 986.341,-108.671 987.121,-109.051 C 987.544,-109.263 988.197,-109.505 988.573,-109.592 C 988.949,-109.675 989.656,-109.972 990.144,-110.248 C 991.743,-111.137 993.425,-111.899 995.115,-112.591 C 995.783,-112.867 995.783,-112.867 996.7,-113.393 C 997.617,-113.916 997.617,-113.916 998.159,-114.192 C 998.872,-114.559 999.385,-115.164 999.947,-115.728 L 1000.34,-115.989 C 1000.74,-116.251 1000.74,-116.251 1001.05,-116.347 C 1002.48,-116.796 1004.25,-119.428 1005.05,-120.8 C 1006.69,-123.605 1007.32,-126.568 1007.32,-129.811 C 1007.32,-132.456 1006.85,-136.675 1004.83,-138.701 C 1004.2,-139.331 1004.2,-139.331 1004.08,-139.683 C 1003.53,-141.339 1000.34,-142.705 998.931,-143.407 C 995.677,-145.029 991.723,-145.121 988.184,-145.121 Z M 895.109,-139.353 C 900.892,-136.005 903.565,-126.485 899.809,-120.708 C 899.513,-120.244 899.241,-119.708 899.156,-119.396 C 899.011,-118.873 899.011,-118.873 898.384,-118.245 C 897.749,-117.613 897.749,-117.613 897.664,-117.305 C 897.235,-115.92 894.839,-114.324 893.651,-113.38 C 893.004,-112.867 893.004,-112.867 892.548,-112.509 C 892.291,-112.307 891.883,-112.068 891.617,-111.972 C 891.248,-111.835 891.011,-111.679 890.523,-111.28 C 889.288,-110.28 887.571,-109.744 886.164,-109.037 C 884.68,-108.293 883.201,-107.537 881.736,-106.753 C 881.736,-111.559 883.465,-116.365 884.503,-121.024 C 884.727,-122.033 885.313,-123.789 885.796,-124.931 C 886.488,-126.527 887.024,-128.136 887.519,-129.796 C 887.796,-130.728 887.796,-130.728 888.291,-131.489 C 889.031,-132.616 889.505,-133.905 889.995,-135.157 C 890.225,-135.749 890.693,-136.519 891.043,-136.863 C 891.671,-137.492 891.671,-137.492 891.716,-137.757 C 891.935,-139.032 894.113,-139.353 895.109,-139.353 Z M 995.783,-138.569 C 997.412,-136.184 997.781,-132.365 997.089,-129.627 C 994.845,-120.639 985.551,-118.287 978.203,-114.705 C 977.669,-114.444 977.121,-114.279 976.56,-114.109 L 977.113,-115.177 C 977.669,-116.251 977.669,-116.251 977.807,-117.061 C 978.025,-118.268 978.468,-119.377 979.008,-120.475 C 979.28,-121.039 979.576,-121.804 979.656,-122.18 C 979.741,-122.551 980.045,-123.261 980.316,-123.752 C 981.061,-125.091 981.623,-126.527 982.256,-127.921 C 982.911,-129.361 982.911,-129.361 983.029,-129.585 C 983.148,-129.811 983.148,-129.811 983.452,-130.531 C 983.748,-131.251 983.748,-131.251 984.375,-131.883 C 984.891,-132.396 985.405,-132.911 985.636,-133.621 C 986.105,-135.093 988.693,-136.477 990.005,-137.124 C 991.808,-138.004 993.775,-138.569 995.783,-138.569 Z M 881.472,-100.805 C 882.931,-99.944 884.324,-99.5493 885.96,-99.0853 C 887.255,-98.72 888.78,-98.1333 889.34,-97.788 C 890.364,-97.16 890.364,-97.16 892.615,-96.216 C 893.948,-95.656 895.116,-95.0227 896.133,-94.0107 C 896.503,-93.8133 896.852,-93.5973 897.189,-93.3453 C 897.472,-93.1347 897.843,-92.9187 898.008,-92.868 C 899.632,-92.368 901.256,-89.616 902.325,-88.2227 C 904.371,-85.564 905.46,-81.6333 903.903,-78.5147 C 903.691,-78.0933 903.512,-77.6253 903.493,-77.464 C 903.473,-77.176 903.473,-77.176 902.839,-76.548 C 902.212,-75.92 902.212,-75.92 902.172,-75.6627 C 901.943,-74.1773 898.543,-72.9933 897.387,-72.4707 C 892.779,-70.3747 886.971,-71.5307 882.389,-73.0907 C 882.179,-74.512 882.027,-75.892 882.013,-77.332 C 881.993,-79.0653 881.993,-79.0653 881.749,-81.4 C 881.109,-87.3693 880.951,-93.372 880.951,-99.376 C 880.951,-100.164 881.063,-100.805 881.213,-100.805 C 881.213,-100.805 881.472,-100.805 881.472,-100.805 Z "/>
			</g>
		</g>
	</g>
</svg>