<?xml version="1.0" encoding="UTF-8" standalone="no"?>
<svg version="1.1" xmlns="http://www.w3.org/2000/svg" xmlns:xlink="http://www.w3.org/1999/xlink" width="257" height="159">
	<defs>
		<clipPath id="clip_dp_001" clipPathUnits="userSpaceOnUse" clip-rule="nonzero">
			<path d="M -393.072,831.496 L -136.063,831.496 L -136.063,990.237 L -393.072,990.237 Z " clip-rule="nonzero"/>
		</clipPath>
		<clipPath id="clip_dp_002" clipPathUnits="userSpaceOnUse" clip-rule="nonzero">
			<path d="M -380.516,837.045 L -148.157,837.045 L -148.157,988.211 L -380.516,988.211 Z " clip-rule="nonzero"/>
		</clipPath>
	</defs>
	<g id="dp_dp001" transform="matrix(1,0,0,1,393.072,-831.496)" clip-path="url(#clip_dp_001)">
		<g id="clip">
			<g id="dp_dp002" clip-path="url(#clip_dp_002)">
				<g id="clip">
					<path id="dp_path003" fill="black" fill-rule="evenodd" stroke="none" stroke-width="0" d="M -328.187,837.045 C -329.149,838.44 -329.784,840.049 -330.279,841.664 C -333.771,853.017 -331.592,865.151 -331.592,876.803 C -331.592,877.981 -331.592,877.981 -331.46,880.344 C -331.328,882.705 -331.328,882.705 -331.328,883.228 C -331.328,883.751 -331.328,883.751 -331.183,885.044 C -331.037,886.332 -331.037,886.332 -331.109,886.599 C -331.151,886.741 -331.691,886.988 -332.319,887.144 C -333.704,887.488 -334.932,888.157 -336.18,888.841 C -337.335,889.469 -337.335,889.469 -338.12,889.616 C -338.907,889.757 -338.907,889.757 -339.823,890.268 C -340.741,890.78 -340.741,890.78 -341.493,890.928 C -344.484,891.509 -347.625,893.559 -350.325,894.857 C -353.349,896.316 -353.349,896.316 -354.537,896.972 C -355.712,897.623 -355.712,897.623 -356.247,897.901 C -356.616,898.091 -356.985,898.343 -357.421,898.687 C -357.904,899.085 -358.141,899.232 -358.464,899.341 C -359.159,899.58 -359.633,900.236 -360.141,900.745 C -360.517,900.943 -360.863,901.159 -361.201,901.415 C -361.523,901.648 -361.825,901.804 -362.004,901.823 C -362.968,901.909 -364.615,903.887 -365.293,904.515 C -367.773,906.808 -364.055,906.092 -362.765,905.872 C -355.553,904.633 -348.504,901.796 -341.579,899.489 C -338.556,898.476 -335.711,897.581 -335.263,897.495 C -334.035,897.256 -332.905,896.563 -331.751,896.091 C -330.015,895.376 -330.536,897.013 -330.529,898.412 C -330.523,899.439 -330.351,901.148 -330.147,902.213 C -329.948,903.281 -329.776,904.987 -329.771,906.005 C -329.757,907.853 -329.757,907.853 -329.507,909.94 C -329.203,912.471 -329.229,915.035 -329.229,917.579 C -329.229,918.107 -329.229,918.107 -329.103,920.468 C -328.971,922.825 -328.971,922.825 -328.971,925.971 C -328.971,929.121 -328.971,929.121 -328.84,931.479 C -328.707,933.84 -328.707,933.84 -328.707,938.563 C -328.707,943.281 -328.707,943.281 -328.575,945.644 C -328.443,948.001 -328.443,948.001 -328.443,948.656 C -328.443,949.312 -328.443,949.312 -328.311,951.412 C -328.187,953.508 -328.187,953.508 -328.055,956.264 C -327.923,959.016 -327.923,959.016 -327.791,961.349 C -327.559,965.408 -326.668,969.2 -325.968,973.153 C -325.42,976.244 -322.013,976.565 -319.505,977.357 C -315.34,978.679 -316.192,974.103 -316.66,971.753 C -317.333,968.411 -317.696,964.867 -317.696,961.455 C -317.696,958.708 -317.968,955.952 -318.205,953.219 C -318.469,950.239 -318.483,947.267 -318.483,944.277 C -318.483,943.227 -318.483,943.227 -318.615,940.869 C -318.74,938.508 -318.74,938.508 -318.74,933.263 C -318.74,928.016 -318.74,928.016 -318.879,925.66 C -319.011,923.297 -319.011,923.297 -319.011,920.936 C -319.011,917.877 -319.196,914.828 -319.519,911.788 C -319.763,909.453 -319.763,909.453 -319.783,907.733 C -319.796,905.276 -319.993,902.832 -320.304,900.392 C -320.555,898.439 -320.555,898.439 -320.568,896.705 C -320.581,894.976 -320.581,894.976 -320.747,893.5 C -320.984,891.441 -319.519,890.611 -317.432,890.543 C -315.485,890.483 -313.432,889.291 -311.664,888.58 C -308.805,887.424 -308.805,887.424 -307.993,887.264 C -307.551,887.181 -306.667,886.888 -306.025,886.612 C -304.877,886.112 -304.877,886.112 -302.62,885.563 C -299.92,884.903 -297.26,884.104 -294.593,883.305 C -291.544,882.388 -288.321,882.119 -285.385,880.848 C -281.444,879.137 -281.569,878.477 -279.147,878.152 C -278.037,878.004 -276.077,878.496 -275.489,878.481 C -274.896,878.468 -273.596,878.22 -272.605,877.927 C -267.601,876.464 -262.281,875.744 -257.139,874.992 C -252.129,874.259 -252.129,874.259 -249.369,873.745 C -242.339,872.443 -235.236,872.003 -228.133,871.269 C -224.873,870.933 -221.605,870.557 -218.437,869.696 C -217.645,869.48 -216.695,869.151 -216.325,868.963 C -214.384,867.976 -217.796,866.991 -218.424,866.788 C -225.883,864.436 -234.511,864.729 -242.215,865.5 C -253.112,866.591 -264.017,868.297 -274.699,870.732 C -278.143,871.516 -281.629,872.172 -282.433,872.187 C -285.728,872.245 -289.173,873.635 -292.336,874.424 C -296.059,875.351 -296.059,875.351 -296.929,875.607 C -297.795,875.859 -297.795,875.859 -299.895,876.267 C -301.049,876.487 -302.627,876.955 -303.405,877.299 C -307.307,879.032 -311.783,879.959 -315.835,881.224 C -321.34,882.94 -321.34,882.94 -321.353,883.004 C -321.367,883.072 -321.367,883.072 -321.367,880.895 C -321.367,878.716 -321.367,878.716 -321.499,876.359 C -321.624,873.997 -321.624,873.997 -321.624,872.557 C -321.624,871.113 -321.624,871.113 -321.763,868.751 C -321.896,866.389 -321.896,866.389 -321.896,865.079 C -321.896,863.771 -321.896,863.771 -322.021,861.409 C -322.153,859.048 -322.153,859.048 -322.153,857.608 C -322.153,851.344 -323.921,843.929 -326.74,838.344 C -327.104,837.628 -327.572,837.045 -327.791,837.045 C -327.923,837.045 -328.187,837.045 -328.187,837.045 Z M -376.16,838.096 C -385.956,874.919 -376.619,914.031 -374.849,951.151 C -374.472,959.116 -373.881,967.053 -373.395,975.015 C -373.253,977.372 -373.253,977.372 -372.725,980.527 C -372.199,983.681 -372.199,983.681 -371.901,984.443 C -371.007,986.74 -367.283,988.364 -364.953,988.364 C -360.637,988.364 -362.573,983.159 -362.921,980.205 C -364.109,970.232 -364.581,960.203 -365.063,950.173 C -365.608,938.835 -366.559,927.641 -367.773,916.351 C -368.773,907.013 -369.631,897.692 -370.129,888.313 C -370.391,883.44 -370.391,883.44 -370.391,881.6 C -370.391,879.765 -370.391,879.765 -370.524,877.404 C -370.653,875.048 -370.653,875.048 -370.653,870.585 C -370.653,860.213 -372.327,849.94 -374.693,839.871 C -374.904,838.959 -375.225,838.183 -375.404,838.156 C -375.725,838.096 -375.725,838.096 -375.945,838.096 C -375.899,838.096 -376.16,838.096 -376.16,838.096 Z M -240.088,879.004 C -243.871,880.94 -244.973,885.123 -245.369,889.08 C -246.016,895.555 -246.379,902.281 -246.379,908.797 C -246.379,909.715 -246.379,909.715 -246.511,912.076 C -247.179,924.077 -246.228,936.055 -244.953,947.977 C -244.313,953.98 -244.313,953.98 -244.313,954.807 C -244.32,957.232 -241.388,958.259 -239.587,959.071 C -238.339,959.635 -234.716,960.18 -234.439,958.195 C -233.897,954.375 -234.992,949.885 -235.368,946.139 C -236.16,938.297 -236.16,938.297 -236.227,936.353 C -236.273,934.849 -236.292,934.404 -235.949,934.515 C -235.368,934.707 -234.92,935.284 -234.452,935.652 C -233.824,936.147 -233.824,936.147 -233.415,936.421 C -225.513,941.783 -218.997,949.547 -212.84,956.745 C -210.727,959.217 -207.241,960.996 -203.901,960.575 C -201.928,960.321 -203.057,957.507 -203.783,956.631 C -210.807,948.139 -218.469,940.397 -227.111,933.551 C -227.46,933.28 -227.869,932.983 -228.028,932.895 C -228.319,932.739 -228.319,932.739 -228.835,932.359 C -230.629,931.02 -232.616,929.979 -234.576,928.901 C -236.365,927.915 -235.151,927.108 -234.439,925.553 C -233.957,924.495 -233.323,923.641 -232.517,922.825 C -232.028,921.904 -231.421,921.028 -230.795,920.193 C -230.589,919.909 -230.365,919.523 -230.299,919.327 C -229.949,918.272 -228.741,917.263 -228.041,916.387 C -227.533,915.745 -227.533,915.745 -227.124,915.209 C -225.48,913.027 -223.652,910.948 -221.856,908.889 C -220.101,906.876 -218.404,904.812 -216.74,902.727 C -216.232,902.084 -216.232,902.084 -215.955,901.676 C -215.679,901.273 -215.679,901.273 -215.303,900.759 C -214.925,900.245 -214.925,900.245 -214.661,899.856 C -214.397,899.461 -214.397,899.461 -214.12,899.067 C -213.969,898.847 -213.737,898.375 -213.599,898.017 C -213.348,897.361 -213.348,897.361 -213.077,896.775 C -211.869,894.115 -211.248,890.515 -211.737,887.631 C -212.312,884.232 -216.245,888.153 -217.809,888.969 C -220.939,890.611 -223.428,894.028 -225.513,896.811 C -228.669,901.02 -232.155,905.009 -235.607,908.981 C -236.332,909.82 -236.332,909.82 -236.372,909.82 C -236.419,909.82 -236.419,909.82 -236.419,908.56 C -236.419,903.107 -236.088,897.416 -235.5,891.987 C -235.099,888.253 -236.121,884.585 -237.613,881.211 C -238.108,880.092 -238.761,879.004 -240.088,879.004 Z M -279.153,880.055 C -280.064,880.367 -280.064,880.367 -280.804,880.739 C -285.233,882.935 -287.715,888.125 -289.2,892.693 C -289.319,893.036 -289.319,893.036 -289.755,892.152 C -290.401,890.864 -291.135,891.075 -292.045,892.028 C -294.381,894.468 -295.604,898.604 -296.217,901.868 C -297.497,908.696 -296.396,916.319 -296.065,923.22 C -295.94,925.756 -295.835,928.291 -296.065,930.828 C -296.137,931.62 -296.137,933.447 -296.065,934.891 C -295.933,937.513 -295.933,937.513 -295.92,939.348 C -295.907,941.181 -295.907,941.181 -295.636,942.791 C -295.359,944.401 -295.359,944.401 -295.135,946.648 C -294.909,948.895 -294.909,948.895 -294.909,948.831 C -294.909,948.763 -294.909,948.763 -296.877,948.368 C -298.844,947.977 -298.844,947.977 -299.868,947.977 C -302.64,947.977 -301.023,950.389 -299.953,951.371 C -298.647,952.572 -297.333,953.457 -295.728,954.232 C -294.172,954.989 -294.172,954.989 -294.137,955.196 C -294.099,955.407 -294.099,955.407 -294.099,956.163 C -294.099,957.919 -293.584,960.583 -292.211,961.803 C -290.613,963.225 -287.133,964.491 -284.963,964.023 C -282.487,963.496 -283.417,960.487 -283.795,958.685 C -282.461,958.988 -281.133,959.291 -279.813,959.648 C -273.041,961.46 -266.051,961.744 -259.595,958.713 C -256.188,957.112 -253.291,953.929 -252.412,950.197 C -251.416,945.891 -252.293,940.484 -255.535,937.252 C -255.595,936.88 -255.859,936.592 -256.083,936.308 C -258.313,933.487 -261.093,931.084 -263.964,928.952 C -266.777,926.851 -270.361,924.769 -273.655,923.788 C -274.077,923.664 -271.991,922.812 -271.675,922.669 C -270.771,922.276 -270.771,922.276 -269.583,921.62 C -268.407,920.963 -268.407,920.963 -267.872,920.688 C -267.153,920.321 -266.639,919.716 -266.071,919.157 C -265.693,918.96 -265.351,918.744 -265.007,918.487 C -264.499,918.107 -264.499,918.107 -264.209,917.96 C -260.183,915.947 -256.539,909.999 -255.825,905.752 C -254.98,900.787 -254.908,893.289 -258.836,889.364 C -259.463,888.735 -259.463,888.735 -259.568,888.415 C -260.017,886.984 -262.445,885.581 -263.648,884.659 C -264.467,884.021 -265.543,883.361 -266.545,883.085 C -266.889,882.989 -267.153,882.852 -267.317,882.687 C -268.44,881.523 -271.14,881.023 -272.664,880.66 C -274.803,880.151 -276.963,880.055 -279.153,880.055 Z M -178.475,880.844 C -179.043,881.115 -180.217,881.463 -181.101,881.615 C -182.911,881.925 -185.669,882.788 -187.003,884.119 C -187.629,884.751 -187.629,884.751 -187.908,884.773 C -188.179,884.801 -188.179,884.801 -189.372,886.112 C -193.031,890.133 -195.347,895.417 -197.109,900.52 C -197.709,902.277 -198.436,903.992 -199.32,905.624 C -199.664,906.257 -200.013,907.308 -200.092,907.959 C -200.237,909.137 -200.237,909.137 -200.633,910.215 C -201.993,913.924 -202.568,918.075 -203.077,921.977 C -204.127,930.163 -204.523,938.801 -203.38,946.996 C -202.932,950.169 -201.803,954.016 -199.479,956.341 C -199.32,956.644 -199.168,956.943 -199.036,957.259 C -197.861,960.033 -195.823,958.777 -194.971,956.809 C -193.096,952.485 -193.557,947.028 -193.816,942.443 C -194.092,937.481 -193.935,932.593 -193.385,927.664 C -193.215,926.168 -192.984,924.871 -192.865,924.779 C -192.747,924.683 -192.555,924.801 -192.435,925.04 C -191.465,926.984 -189.135,928.691 -187.651,930.277 C -184.297,933.876 -180.831,937.384 -177.405,940.92 L -175.703,942.759 C -174.012,944.576 -172.328,946.391 -170.639,948.211 C -169.048,949.803 -167.457,951.393 -165.868,952.985 L -165.208,953.508 C -164.548,954.035 -164.548,954.035 -164.028,954.429 C -163.508,954.819 -163.508,954.819 -163.048,955.172 C -161.888,956.072 -160.379,956.956 -158.948,957.287 C -158.568,957.373 -157.908,957.635 -157.479,957.864 C -155.588,958.869 -152.628,959.075 -150.588,958.471 C -148.599,957.883 -147.388,955.016 -148.839,953.32 C -149.268,952.815 -149.359,952.683 -149.399,952.457 C -149.708,950.651 -153.528,951.38 -154.488,951.632 C -156.428,952.147 -156.428,952.147 -156.759,952.151 C -158.028,952.165 -159.939,949.472 -160.648,948.763 C -163.288,946.125 -165.799,943.373 -168.361,940.659 C -171.623,937.201 -174.943,933.799 -178.243,930.383 L -179.933,928.557 C -181.624,926.732 -181.624,926.732 -183.083,925.149 C -184.647,923.444 -186.237,921.771 -187.828,920.101 L -186.416,919.735 C -184.989,919.363 -183.729,918.721 -182.409,918.079 C -181.855,917.809 -181.148,917.515 -180.851,917.437 C -180.317,917.295 -180.317,917.295 -179.537,916.915 C -179.115,916.703 -178.461,916.46 -178.085,916.373 C -177.709,916.291 -177.003,915.993 -176.515,915.717 C -174.916,914.828 -173.233,914.067 -171.544,913.375 C -170.876,913.099 -170.876,913.099 -169.959,912.572 C -169.041,912.049 -169.041,912.049 -168.5,911.773 C -167.787,911.407 -167.273,910.801 -166.712,910.237 L -166.319,909.976 C -165.919,909.715 -165.919,909.715 -165.608,909.619 C -164.179,909.169 -162.408,906.537 -161.608,905.165 C -159.968,902.36 -159.339,899.397 -159.339,896.155 C -159.339,893.509 -159.808,889.291 -161.828,887.264 C -162.459,886.635 -162.459,886.635 -162.579,886.283 C -163.128,884.627 -166.319,883.26 -167.728,882.559 C -170.981,880.936 -174.936,880.844 -178.475,880.844 Z M -271.549,886.612 C -265.767,889.96 -263.093,899.48 -266.849,905.257 C -267.145,905.721 -267.417,906.257 -267.503,906.569 C -267.648,907.092 -267.648,907.092 -268.275,907.72 C -268.909,908.352 -268.909,908.352 -268.995,908.66 C -269.424,910.045 -271.82,911.641 -273.008,912.585 C -273.655,913.099 -273.655,913.099 -274.111,913.456 C -274.368,913.659 -274.776,913.897 -275.041,913.993 C -275.411,914.131 -275.648,914.287 -276.136,914.685 C -277.371,915.685 -279.088,916.221 -280.495,916.928 C -281.979,917.672 -283.457,918.428 -284.923,919.212 C -284.923,914.407 -283.193,909.6 -282.156,904.941 C -281.932,903.932 -281.345,902.176 -280.863,901.035 C -280.171,899.439 -279.635,897.829 -279.14,896.169 C -278.863,895.237 -278.863,895.237 -278.368,894.476 C -277.628,893.349 -277.153,892.06 -276.664,890.808 C -276.433,890.216 -275.965,889.447 -275.616,889.103 C -274.988,888.473 -274.988,888.473 -274.943,888.208 C -274.724,886.933 -272.545,886.612 -271.549,886.612 Z M -170.876,887.396 C -169.247,889.781 -168.877,893.6 -169.569,896.339 C -171.813,905.327 -181.108,907.679 -188.456,911.26 C -188.989,911.521 -189.537,911.687 -190.099,911.856 L -189.545,910.788 C -188.989,909.715 -188.989,909.715 -188.852,908.904 C -188.633,907.697 -188.191,906.588 -187.651,905.491 C -187.379,904.927 -187.083,904.161 -187.003,903.785 C -186.917,903.415 -186.613,902.704 -186.343,902.213 C -185.597,900.875 -185.036,899.439 -184.403,898.044 C -183.748,896.604 -183.748,896.604 -183.629,896.38 C -183.511,896.155 -183.511,896.155 -183.207,895.435 C -182.911,894.715 -182.911,894.715 -182.284,894.083 C -181.768,893.569 -181.253,893.055 -181.023,892.344 C -180.553,890.872 -177.965,889.488 -176.653,888.841 C -174.851,887.961 -172.884,887.396 -170.876,887.396 Z M -285.187,925.16 C -283.728,926.021 -282.335,926.416 -280.699,926.88 C -279.404,927.245 -277.879,927.832 -277.319,928.177 C -276.295,928.805 -276.295,928.805 -274.044,929.749 C -272.711,930.309 -271.543,930.943 -270.525,931.955 C -270.156,932.152 -269.807,932.368 -269.469,932.62 C -269.187,932.831 -268.816,933.047 -268.651,933.097 C -267.027,933.597 -265.403,936.349 -264.333,937.743 C -262.288,940.401 -261.199,944.332 -262.756,947.451 C -262.968,947.872 -263.147,948.34 -263.165,948.501 C -263.185,948.789 -263.185,948.789 -263.82,949.417 C -264.447,950.045 -264.447,950.045 -264.487,950.303 C -264.716,951.788 -268.116,952.972 -269.272,953.495 C -273.88,955.591 -279.688,954.435 -284.269,952.875 C -284.48,951.453 -284.632,950.073 -284.645,948.633 C -284.665,946.9 -284.665,946.9 -284.909,944.565 C -285.549,938.596 -285.708,932.593 -285.708,926.589 C -285.708,925.801 -285.596,925.16 -285.445,925.16 C -285.445,925.16 -285.187,925.16 -285.187,925.16 Z "/>
				</g>
			</g>
		</g>
	</g>
</svg>